<svg xmlns="http://www.w3.org/2000/svg" viewBox="229 217 807 422"><title>North Peak Construction Alliance</title><style>svg{--c0:#001234;--c1:#001435;--c2:#001A3A;--c3:#002341;--c4:#011033;--c5:#012A46;--c6:#0C324C;--c7:#11354F;--c8:#1C3C53;--c9:#244158;--c10:#2D485D;--c11:#324C61;--c12:#375063;--c13:#41586A;--c14:#455B6D;--c15:#4C6171;--c16:#516473;--c17:#556776;--c18:#596B79;}@media(prefers-color-scheme:dark){svg{--c0:#F6F7F9;--c1:#F5F6F8;--c2:#F2F4F6;--c3:#EDF0F2;--c4:#F6F7F9;--c5:#E9EDEF;--c6:#DDE3E7;--c7:#D8DEE3;--c8:#CDD5DB;--c9:#C4CDD4;--c10:#BBC5CD;--c11:#B4C0C9;--c12:#B0BCC5;--c13:#A6B2BB;--c14:#A2ADB6;--c15:#9CA7AF;--c16:#98A2AA;--c17:#949EA6;--c18:#909AA2;}}</style><path fill="var(--c4)" d="M697,434 C706,428 715,421 724,414 C694,377 663,340 633,303 C601,340 570,377 539,414 C549,421 559,427 569,434 C562,439 556,444 550,449 C531,465 511,480 491,496 C472,480 452,464 432,448 C368,506 303,563 239,621 C239,620 238,620 238,619 C298,536 362,457 428,378 C445,392 461,405 478,419 C530,354 582,289 634,223 C684,289 734,354 785,420 C803,405 821,392 839,377 C903,457 967,537 1025,620 C1025,620 1025,621 1024,621 C960,564 896,506 832,448 C812,464 793,480 773,496 C754,480 734,465 714,449 C708,444 703,439 697,434 z"/><path fill="var(--c18)" d="M697,434 C703,439 708,444 714,449 C711,463 716,473 728,481 C730,482 732,484 734,487 C729,490 725,491 720,489 C718,489 715,490 715,491 C714,496 714,501 714,506 C714,508 713,508 713,509 C703,501 693,494 683,486 C683,531 683,577 683,624 C671,615 660,607 649,598 C649,598 649,597 649,597 C649,593 648,589 648,585 C648,555 648,526 649,495 C649,492 649,490 649,488 C649,481 648,475 648,468 C648,451 648,434 649,416 C649,415 649,414 649,413 C649,408 649,404 649,398 C650,398 650,398 650,398 C653,399 655,401 657,402 C670,413 683,424 697,434 z"/><path fill="var(--c18)" d="M550,449 C556,444 562,439 569,434 C584,421 600,409 616,396 C616,398 616,400 616,401 C616,465 616,529 616,593 C616,597 615,599 612,602 C603,607 595,614 587,620 C585,621 584,621 582,623 C582,619 582,616 582,612 C583,611 583,610 583,610 C583,570 583,530 583,490 C583,488 582,487 582,486 C573,493 564,500 556,507 C554,508 553,509 552,509 C551,506 551,503 551,501 C551,498 551,496 551,494 C551,485 551,485 543,489 C539,491 533,490 532,486 C537,481 543,476 549,471 C550,469 551,467 551,465 C551,460 551,455 550,449 z"/><path fill="var(--c1)" d="M551,562 C551,563 551,565 551,567 C551,569 551,570 551,571 C551,591 551,611 551,632 C490,632 430,632 368,632 C379,623 389,614 399,605 C404,608 409,609 414,606 C416,604 419,603 422,603 C428,603 433,603 438,603 C443,603 447,602 451,601 C456,600 460,598 464,597 C468,596 472,596 476,596 C483,594 491,593 498,591 C508,589 519,586 529,584 C536,583 542,580 549,585 C549,578 549,572 549,566 C549,565 550,563 551,562 z"/><path fill="var(--c0)" d="M866,605 C876,614 886,623 896,632 C835,632 774,632 714,632 C714,611 714,591 714,569 C715,569 716,569 716,569 C716,572 716,573 716,575 C716,579 716,582 716,584 C716,588 717,588 720,588 C722,588 725,588 727,588 C733,590 738,592 744,593 C753,595 762,596 772,597 C773,598 775,598 777,597 C787,595 796,598 804,603 C808,605 811,607 816,607 C820,607 824,607 829,607 C834,607 840,607 845,612 C845,613 846,613 847,613 C853,612 858,611 864,610 C865,610 865,608 866,607 C866,606 866,606 866,605 z"/><path fill="var(--c3)" d="M551,562 C550,563 549,565 549,566 C549,572 549,578 549,585 C542,580 536,583 529,584 C519,586 508,589 498,591 C491,593 483,594 476,596 C472,596 468,596 464,597 C460,598 456,600 451,601 C447,602 443,603 438,603 C433,603 428,603 422,603 C419,603 416,604 414,606 C409,609 404,608 399,605 C405,600 410,595 417,590 C421,589 426,590 429,588 C438,582 449,580 458,577 C472,573 486,571 500,568 C507,566 515,563 522,561 C531,559 540,558 549,557 C549,554 549,550 549,546 C550,543 550,541 551,539 C551,546 551,554 551,562 z"/><path fill="var(--c7)" d="M714,532 C715,534 716,535 718,538 C718,538 719,538 721,538 C733,537 746,539 758,541 C766,543 773,547 781,550 C787,553 793,557 799,560 C806,564 813,568 821,572 C823,573 825,573 828,573 C831,575 835,577 838,580 C840,581 842,583 844,586 C840,589 837,588 833,586 C824,582 816,578 807,574 C800,570 792,567 785,563 C774,556 762,555 750,553 C739,551 728,550 717,549 C716,546 715,544 714,541 C714,538 714,536 714,532 z"/><path fill="var(--c3)" d="M716,575 C716,573 716,572 716,569 C716,565 716,563 716,560 C720,561 723,561 725,563 C730,565 734,567 739,565 C740,565 741,565 743,565 C752,564 760,571 770,570 C778,569 786,572 793,576 C802,580 812,582 821,587 C827,590 834,593 841,594 C844,594 847,593 848,590 C854,595 860,600 866,605 C866,606 866,606 866,607 C859,607 854,606 850,601 C849,601 848,600 847,600 C842,599 836,599 831,598 C826,598 822,596 818,595 C815,593 811,591 808,590 C800,588 791,588 783,586 C774,583 765,581 755,581 C750,581 744,578 739,578 C731,576 724,576 716,575 z"/><path fill="var(--c5)" d="M848,590 C847,593 844,594 841,594 C834,593 827,590 821,587 C812,582 802,580 793,576 C786,572 778,569 770,570 C760,571 752,564 743,565 C741,565 740,565 739,565 C734,567 730,565 725,563 C723,561 720,561 716,560 C715,557 715,556 714,554 C714,550 714,546 714,542 C715,544 716,546 717,549 C728,550 739,551 750,553 C762,555 774,556 785,563 C792,567 800,570 807,574 C816,578 824,582 833,586 C837,588 840,589 844,586 C845,587 846,588 847,589 C848,589 848,590 848,590 C848,590 848,590 848,590 z"/><path fill="var(--c8)" d="M549,546 C539,542 530,545 521,548 C514,551 507,552 500,554 C496,555 491,556 487,557 C471,563 456,569 441,575 C439,576 437,575 435,574 C442,567 449,560 457,554 C459,557 461,557 464,556 C466,555 469,554 472,553 C482,550 492,547 502,543 C510,541 517,537 525,536 C533,535 540,532 549,530 C549,528 549,525 549,522 C549,522 549,521 549,521 C550,521 551,521 551,521 C551,527 551,532 551,539 C550,541 550,543 549,546 z"/><path fill="var(--c9)" d="M804,550 C812,557 820,565 828,573 C825,573 823,573 821,572 C813,568 806,564 799,560 C793,557 787,553 781,550 C773,547 766,543 758,541 C746,539 733,537 721,538 C719,538 718,538 718,538 C716,535 715,534 714,532 C714,527 714,523 714,518 C716,519 716,523 720,523 C725,523 731,524 736,523 C749,521 759,528 769,533 C779,538 789,545 799,551 C800,552 802,550 804,550 z"/><path fill="var(--c6)" d="M549,546 C549,550 549,554 549,557 C540,558 531,559 522,561 C515,563 507,566 500,568 C486,571 472,573 458,577 C449,580 438,582 429,588 C426,590 421,589 417,590 C423,584 428,579 435,574 C437,575 439,576 441,575 C456,569 471,563 487,557 C491,556 496,555 500,554 C507,552 514,551 521,548 C530,545 539,542 549,546 z"/><path fill="var(--c2)" d="M716,575 C724,576 731,576 739,578 C744,578 750,581 755,581 C765,581 774,583 783,586 C791,588 800,588 808,590 C811,591 815,593 818,595 C822,596 826,598 831,598 C836,599 842,599 847,600 C848,600 849,601 850,601 C854,606 859,607 866,607 C865,608 865,610 864,610 C858,611 853,612 847,613 C846,613 845,613 845,612 C840,607 834,607 829,607 C824,607 820,607 816,607 C811,607 808,605 804,603 C796,598 787,595 777,597 C775,598 773,598 772,597 C762,596 753,595 744,593 C738,592 733,590 727,588 C725,588 722,588 720,588 C717,588 716,588 716,584 C716,582 716,579 716,575 z"/><path fill="var(--c12)" d="M804,550 C802,550 800,552 799,551 C789,545 779,538 769,533 C759,528 749,521 736,523 C731,524 725,523 720,523 C716,523 716,519 714,517 C714,517 714,516 714,515 C717,513 717,512 714,511 C714,511 713,510 713,510 C713,508 714,508 714,506 C729,504 743,504 754,514 C758,517 760,517 762,512 C776,525 790,537 804,550 z"/><path fill="var(--c13)" d="M311,582 C319,575 326,569 335,563 C338,568 341,573 345,578 C350,584 356,591 362,597 C364,600 366,602 368,605 C361,612 353,619 345,626 C343,623 342,620 340,617 C336,613 332,609 328,604 C322,597 316,589 311,582 z"/><path fill="var(--c10)" d="M474,539 C475,542 478,541 480,541 C485,539 490,536 496,535 C507,533 516,524 528,525 C530,525 532,524 534,522 C539,520 543,519 549,522 C549,525 549,528 549,530 C540,532 533,535 525,536 C517,537 510,541 502,543 C492,547 482,550 472,553 C469,554 466,555 464,556 C461,557 459,557 457,554 C462,549 468,544 474,539 z"/><path fill="var(--c14)" d="M942,575 C947,578 952,582 957,585 C958,586 958,588 957,589 C954,595 955,599 961,603 C960,605 959,606 959,607 C951,614 943,621 936,628 C935,629 935,630 934,632 C927,634 921,631 917,625 C911,620 906,615 900,609 C903,608 905,608 907,607 C910,605 913,603 915,601 C924,592 933,583 942,575 z"/><path fill="var(--c16)" d="M934,632 C935,630 935,629 936,628 C943,621 951,614 959,607 C959,606 960,605 961,603 C966,603 971,603 973,597 C992,608 1011,620 1029,631 C1029,631 1029,632 1029,632 C998,632 966,632 934,632 z"/><path fill="var(--c12)" d="M549,521 C549,521 549,522 549,522 C543,519 539,520 534,522 C532,524 530,525 528,525 C516,524 507,533 496,535 C490,536 485,539 480,541 C478,541 475,542 474,539 C481,532 489,525 497,518 C501,519 504,520 506,519 C514,517 522,514 529,511 C536,508 544,504 551,501 C551,503 551,506 551,509 C551,510 551,510 551,511 C550,514 549,518 549,521 z"/><path fill="var(--c15)" d="M310,582 C316,589 322,597 328,604 C332,609 336,613 340,617 C342,620 343,623 345,626 C342,631 338,633 332,632 C322,632 313,632 303,632 C297,623 291,615 285,607 C284,606 283,604 282,602 C283,601 285,600 286,599 C289,597 290,598 291,600 C293,604 299,605 303,603 C307,600 308,595 305,591 C303,589 303,587 305,586 C307,584 308,583 310,582 z"/><path fill="var(--c11)" d="M369,605 C366,602 364,600 362,597 C356,591 350,584 345,578 C341,573 338,568 335,563 C341,557 347,552 354,547 C364,557 372,567 381,577 C383,580 386,583 389,586 C382,592 376,598 369,605 z"/><path fill="var(--c12)" d="M942,574 C933,583 924,592 915,601 C913,603 910,605 907,607 C905,608 903,608 900,609 C894,604 888,599 883,593 C892,586 901,579 910,572 C915,568 919,563 924,559 C930,564 936,569 942,574 z"/><path fill="var(--c10)" d="M924,558 C919,563 915,568 910,572 C901,579 892,586 883,593 C876,588 870,582 863,577 C869,576 875,575 881,574 C882,574 884,573 885,572 C888,569 891,566 894,562 C899,557 903,551 908,546 C913,550 918,554 924,558 z"/><path fill="var(--c9)" d="M389,586 C386,583 383,580 381,577 C372,567 364,557 355,547 C360,542 366,537 372,533 C378,539 383,545 388,551 C388,551 388,551 388,552 C390,556 393,559 395,563 C391,566 388,568 384,571 C383,572 382,574 382,575 C383,576 384,577 386,577 C389,577 393,577 397,578 C397,579 397,579 397,579 C395,582 392,584 389,586 z"/><path fill="var(--c17)" d="M282,602 C283,604 284,606 285,607 C291,615 297,623 303,632 C281,632 258,632 235,632 C251,622 266,612 282,602 z"/></svg>